<svg width="27" height="27" viewBox="0 0 27 27" fill="none" xmlns="http://www.w3.org/2000/svg">
<path d="M17.3903 8.18823C18.7658 8.21149 18.708 2.14052 18.708 2.14052C18.708 2.14052 20.457 2.09528 23.242 4.54687C26.8328 7.70672 28.1613 14.5366 24.0799 16.8079C23.5701 17.1016 23.0029 17.273 22.4203 17.3094C21.8377 17.3458 21.2547 17.2462 20.7144 17.0182C21.2691 16.7535 21.7807 16.4016 22.2312 15.9752C23.0063 15.2347 23.6233 14.3351 24.0425 13.3341C23.4792 14.148 22.8325 14.8967 22.1136 15.5671C21.539 16.0481 20.8846 16.4172 20.1823 16.6565L19.5998 16.2085C20.681 15.1516 21.6501 13.9787 22.4904 12.7094C23.0541 11.9535 23.4242 11.0629 23.5664 10.1201C23.2992 11.0266 22.8602 11.8692 22.2749 12.5989C21.29 13.7665 20.1683 14.8029 18.9357 15.6843C18.4353 15.2805 17.9147 14.8442 17.3634 14.386C17.8505 13.6764 18.2519 12.908 18.5587 12.0979C18.9218 11.0743 19.1004 9.9908 19.0858 8.90085C18.8287 9.93766 18.5083 10.9567 18.1266 11.9517C17.8298 12.6921 17.3693 13.3505 16.7819 13.8739C15.761 13.0231 14.741 12.1189 13.7212 11.2039C14.0682 10.6068 14.3262 9.95909 14.4865 9.2826C14.6565 8.65023 14.6384 7.97966 14.4346 7.35813C14.3806 7.9904 14.2489 8.61302 14.0428 9.21098C13.8512 9.76548 13.5306 10.2628 13.1092 10.6593C11.7323 9.42838 5.381 3.58225 5.381 3.58225L10.8492 9.01804C9.8444 9.44361 8.79912 9.75905 7.73058 9.95916C6.96551 10.0609 6.18922 10.0261 5.43561 9.85622C5.43561 9.85622 6.27112 10.0093 7.50083 10.0942C8.77737 10.0563 10.0435 9.84415 11.2662 9.46325L14.6163 12.8007C13.717 13.3805 12.775 13.8863 11.7989 14.3133C10.3078 14.8898 8.77928 15.3568 7.22459 15.7107C8.68954 15.6243 10.139 15.3546 11.541 14.9074C12.7757 14.4768 13.9745 13.9431 15.1254 13.3116L17.4469 15.6271C16.4145 16.6779 15.3024 17.6419 14.1213 18.5097C12.7208 19.2484 11.2765 19.895 9.79705 20.4456C11.3874 20.2272 12.9231 19.6983 14.3222 18.8871C15.963 17.8462 17.4607 16.7067 18.0682 16.236L18.8319 16.997C18.3581 18.2155 17.6934 19.3452 16.8645 20.3407C15.6779 21.557 14.3859 22.6584 13.0047 23.6311C14.5183 22.8477 15.9254 21.8618 17.1898 20.6989C18.0076 19.7693 18.7184 18.745 19.3077 17.6463C19.4297 17.7837 19.5412 17.9245 19.6424 18.0687C19.7613 18.8107 19.7102 19.5711 19.493 20.289C19.2033 20.9834 18.7935 21.6175 18.2836 22.1601C18.9584 21.7211 19.4937 21.0874 19.8232 20.3373C20.0192 19.9032 20.1488 19.4404 20.2073 18.9653C22.7172 23.7312 16.7678 27.6594 11.5371 26.1283C7.41843 24.9152 3.62575 20.1489 3.62575 20.1489C5.00889 20.3151 6.40935 20.2376 7.76748 19.9197C9.63801 19.3956 12.9709 17.9986 12.8019 16.2752C12.633 14.5518 6.96746 19.4894 3.57476 18.8122C0.707975 18.2401 0.32984 12.1423 0.32984 12.1423C0.52857 12.6006 0.822605 13.0081 1.19105 13.3357C1.55948 13.6633 1.99328 13.903 2.46159 14.0378C4.0449 14.6524 9.45433 13.4294 9.73429 12.0983C10.0309 10.3721 3.87055 13.9121 1.4789 10.8045C0.110772 9.02881 1.86545 6.69673 2.48459 4.85842C2.85266 3.64636 2.92658 2.35944 2.69983 1.11104C2.69983 1.11104 3.65287 1.03097 5.80631 0.928466C7.95974 0.825958 9.42959 -0.517067 10.7361 0.584377C12.0426 1.68582 11.2845 5.7446 12.4285 5.36854C13.5724 4.99249 11.9279 0.454921 11.9279 0.454921C11.9279 0.454921 12.9621 0.472417 15.3391 0.619483C17.7162 0.766549 16.077 8.15533 17.3903 8.18823Z" fill="#169E3B" fill-opacity="0.32"/>
</svg>
