<svg width="1440" height="1238" viewBox="0 0 1440 1238" fill="none" xmlns="http://www.w3.org/2000/svg">
<path d="M544.803 295.057L566.922 304.413" stroke="#D3D3D3" stroke-width="6.47776" stroke-linecap="round" stroke-linejoin="round"/>
<path d="M580.462 309.909L602.581 319.265" stroke="#D3D3D3" stroke-width="6.47776" stroke-linecap="round" stroke-linejoin="round"/>
<path d="M616.41 325.115L638.529 334.47" stroke="#D3D3D3" stroke-width="6.47776" stroke-linecap="round" stroke-linejoin="round"/>
<path d="M653.849 340.95L675.968 350.306" stroke="#D3D3D3" stroke-width="6.47776" stroke-linecap="round" stroke-linejoin="round"/>
<path d="M692.692 354.592L716.637 357.376" stroke="#D3D3D3" stroke-width="6.47881" stroke-linecap="round" stroke-linejoin="round"/>
<path d="M732.465 356.271L756.374 351.493" stroke="#D3D3D3" stroke-width="6.48104" stroke-linecap="round" stroke-linejoin="round"/>
<path d="M771.294 345.81L793.494 335.023" stroke="#D3D3D3" stroke-width="6.48167" stroke-linecap="round" stroke-linejoin="round"/>
<path d="M805.627 325.396L824.762 309.363" stroke="#D3D3D3" stroke-width="6.4805" stroke-linecap="round" stroke-linejoin="round"/>
<path d="M834.925 296.895L849.225 276.172" stroke="#D3D3D3" stroke-width="6.47843" stroke-linecap="round" stroke-linejoin="round"/>
<path d="M856.066 261.625L865.992 238.429" stroke="#D3D3D3" stroke-width="6.47776" stroke-linecap="round" stroke-linejoin="round"/>
<g clip-path="url(#clip0_220_626)">
<path d="M1214.52 559.176L1193.16 548.194" stroke="#D3D3D3" stroke-width="6.47776" stroke-linecap="round" stroke-linejoin="round"/>
<path d="M1180.07 541.702L1158.71 530.721" stroke="#D3D3D3" stroke-width="6.47776" stroke-linecap="round" stroke-linejoin="round"/>
<path d="M1145.36 523.855L1124 512.873" stroke="#D3D3D3" stroke-width="6.47776" stroke-linecap="round" stroke-linejoin="round"/>
<path d="M1109.21 505.268L1087.85 494.286" stroke="#D3D3D3" stroke-width="6.47776" stroke-linecap="round" stroke-linejoin="round"/>
<path d="M1071.49 488.762L1047.82 484.198" stroke="#D3D3D3" stroke-width="6.47881" stroke-linecap="round" stroke-linejoin="round"/>
<path d="M1031.95 484.117L1007.76 487.096" stroke="#D3D3D3" stroke-width="6.48104" stroke-linecap="round" stroke-linejoin="round"/>
<path d="M992.453 491.65L969.509 500.749" stroke="#D3D3D3" stroke-width="6.48167" stroke-linecap="round" stroke-linejoin="round"/>
<path d="M956.691 509.443L936.412 524.001" stroke="#D3D3D3" stroke-width="6.4805" stroke-linecap="round" stroke-linejoin="round"/>
<path d="M925.345 535.676L909.539 555.273" stroke="#D3D3D3" stroke-width="6.47843" stroke-linecap="round" stroke-linejoin="round"/>
<path d="M901.63 569.268L889.999 591.658" stroke="#D3D3D3" stroke-width="6.47776" stroke-linecap="round" stroke-linejoin="round"/>
</g>
<path d="M1195.16 590.824L1208.22 610.98" stroke="#D3D3D3" stroke-width="6.47776" stroke-linecap="round" stroke-linejoin="round"/>
<path d="M1215.99 623.358L1229.05 643.513" stroke="#D3D3D3" stroke-width="6.47776" stroke-linecap="round" stroke-linejoin="round"/>
<path d="M1237.21 656.115L1250.27 676.271" stroke="#D3D3D3" stroke-width="6.47776" stroke-linecap="round" stroke-linejoin="round"/>
<path d="M1259.32 690.23L1272.38 710.385" stroke="#D3D3D3" stroke-width="6.47776" stroke-linecap="round" stroke-linejoin="round"/>
<path d="M1279.51 726.11L1286.41 749.206" stroke="#D3D3D3" stroke-width="6.47881" stroke-linecap="round" stroke-linejoin="round"/>
<path d="M1288.07 764.985L1287.53 789.36" stroke="#D3D3D3" stroke-width="6.48104" stroke-linecap="round" stroke-linejoin="round"/>
<path d="M199.277 970.398L218.772 956.372" stroke="#D3D3D3" stroke-width="6.47776" stroke-linecap="round" stroke-linejoin="round"/>
<path d="M230.757 948.011L250.252 933.986" stroke="#D3D3D3" stroke-width="6.47776" stroke-linecap="round" stroke-linejoin="round"/>
<path d="M262.441 925.216L281.935 911.191" stroke="#D3D3D3" stroke-width="6.47776" stroke-linecap="round" stroke-linejoin="round"/>
<path d="M295.438 901.476L314.933 887.451" stroke="#D3D3D3" stroke-width="6.47776" stroke-linecap="round" stroke-linejoin="round"/>
<path d="M330.292 879.563L353.023 871.542" stroke="#D3D3D3" stroke-width="6.47881" stroke-linecap="round" stroke-linejoin="round"/>
<path d="M368.703 869.11L393.075 868.469" stroke="#D3D3D3" stroke-width="6.48104" stroke-linecap="round" stroke-linejoin="round"/>
<path d="M408.885 870.704L432.923 876.302" stroke="#D3D3D3" stroke-width="6.48167" stroke-linecap="round" stroke-linejoin="round"/>
<path d="M446.889 883L469.1 894.392" stroke="#D3D3D3" stroke-width="6.4805" stroke-linecap="round" stroke-linejoin="round"/>
<path d="M481.776 904.298L500.312 921.336" stroke="#D3D3D3" stroke-width="6.47843" stroke-linecap="round" stroke-linejoin="round"/>
<path d="M510.208 934.004L525.029 954.423" stroke="#D3D3D3" stroke-width="6.47776" stroke-linecap="round" stroke-linejoin="round"/>
<path d="M882.743 919.125L866.121 936.458" stroke="#D3D3D3" stroke-width="6.47776" stroke-linecap="round" stroke-linejoin="round"/>
<path d="M855.854 946.857L839.231 964.19" stroke="#D3D3D3" stroke-width="6.47776" stroke-linecap="round" stroke-linejoin="round"/>
<path d="M828.837 975.028L812.215 992.362" stroke="#D3D3D3" stroke-width="6.47776" stroke-linecap="round" stroke-linejoin="round"/>
<path d="M800.702 1004.37L784.08 1021.7" stroke="#D3D3D3" stroke-width="6.47776" stroke-linecap="round" stroke-linejoin="round"/>
<path d="M770.409 1032.25L749.513 1044.26" stroke="#D3D3D3" stroke-width="6.47881" stroke-linecap="round" stroke-linejoin="round"/>
<path d="M734.536 1049.5L710.685 1054.56" stroke="#D3D3D3" stroke-width="6.48104" stroke-linecap="round" stroke-linejoin="round"/>
<path d="M694.733 1055.24L670.078 1054.1" stroke="#D3D3D3" stroke-width="6.48167" stroke-linecap="round" stroke-linejoin="round"/>
<path d="M655.128 1050.05L631.216 1042.88" stroke="#D3D3D3" stroke-width="6.4805" stroke-linecap="round" stroke-linejoin="round"/>
<path d="M616.952 1035.44L595.629 1022.06" stroke="#D3D3D3" stroke-width="6.47843" stroke-linecap="round" stroke-linejoin="round"/>
<path d="M583.597 1011.39L565.314 994.009" stroke="#D3D3D3" stroke-width="6.47776" stroke-linecap="round" stroke-linejoin="round"/>
<path d="M552.088 984.171L533.805 966.784" stroke="#D3D3D3" stroke-width="6.47776" stroke-linecap="round" stroke-linejoin="round"/>
<path d="M556.671 597.683L576.482 611.258" stroke="#D3D3D3" stroke-width="6.47776" stroke-linecap="round" stroke-linejoin="round"/>
<path d="M588.656 619.342L608.468 632.916" stroke="#D3D3D3" stroke-width="6.47776" stroke-linecap="round" stroke-linejoin="round"/>
<path d="M620.854 641.404L640.666 654.979" stroke="#D3D3D3" stroke-width="6.47776" stroke-linecap="round" stroke-linejoin="round"/>
<path d="M654.387 664.381L674.199 677.956" stroke="#D3D3D3" stroke-width="6.47776" stroke-linecap="round" stroke-linejoin="round"/>
<path d="M689.734 685.489L712.644 692.987" stroke="#D3D3D3" stroke-width="6.47881" stroke-linecap="round" stroke-linejoin="round"/>
<path d="M728.375 695.058L752.756 695.139" stroke="#D3D3D3" stroke-width="6.48104" stroke-linecap="round" stroke-linejoin="round"/>
<path d="M768.51 692.542L792.414 686.394" stroke="#D3D3D3" stroke-width="6.48167" stroke-linecap="round" stroke-linejoin="round"/>
<path d="M806.222 679.378L828.167 667.479" stroke="#D3D3D3" stroke-width="6.4805" stroke-linecap="round" stroke-linejoin="round"/>
<path d="M840.611 657.285L858.752 639.826" stroke="#D3D3D3" stroke-width="6.47843" stroke-linecap="round" stroke-linejoin="round"/>
<path d="M868.354 626.935L882.703 606.181" stroke="#D3D3D3" stroke-width="6.47776" stroke-linecap="round" stroke-linejoin="round"/>
<path d="M220.837 161.081L200.222 173.403" stroke="#D3D3D3" stroke-width="6.47776" stroke-linecap="round" stroke-linejoin="round"/>
<path d="M187.79 181.081L167.175 193.402" stroke="#D3D3D3" stroke-width="6.47776" stroke-linecap="round" stroke-linejoin="round"/>
<path d="M154.286 201.106L133.671 213.427" stroke="#D3D3D3" stroke-width="6.47776" stroke-linecap="round" stroke-linejoin="round"/>
<path d="M119.394 221.961L98.7786 234.282" stroke="#D3D3D3" stroke-width="6.47776" stroke-linecap="round" stroke-linejoin="round"/>
<path d="M85.4407 245.245L69.0506 262.921" stroke="#D3D3D3" stroke-width="6.47881" stroke-linecap="round" stroke-linejoin="round"/>
<path d="M60.5918 276.345L50.3242 298.459" stroke="#D3D3D3" stroke-width="6.48104" stroke-linecap="round" stroke-linejoin="round"/>
<path d="M46.0969 313.855L41.6876 338.141" stroke="#D3D3D3" stroke-width="6.48167" stroke-linecap="round" stroke-linejoin="round"/>
<path d="M42.2886 353.617L43.9221 378.527" stroke="#D3D3D3" stroke-width="6.4805" stroke-linecap="round" stroke-linejoin="round"/>
<path d="M47.979 394.093L56.2537 417.872" stroke="#D3D3D3" stroke-width="6.47843" stroke-linecap="round" stroke-linejoin="round"/>
<path d="M63.95 431.985L76.8032 453.696" stroke="#D3D3D3" stroke-width="6.47776" stroke-linecap="round" stroke-linejoin="round"/>
<path d="M1161.19 59.4934L1185.18 58.4024" stroke="#D3D3D3" stroke-width="6.47776" stroke-linecap="round" stroke-linejoin="round"/>
<path d="M1199.79 57.951L1223.78 56.86" stroke="#D3D3D3" stroke-width="6.47776" stroke-linecap="round" stroke-linejoin="round"/>
<path d="M1238.78 56.1776L1262.77 55.0866" stroke="#D3D3D3" stroke-width="6.47776" stroke-linecap="round" stroke-linejoin="round"/>
<path d="M1279.38 54.3312L1303.38 53.2402" stroke="#D3D3D3" stroke-width="6.47776" stroke-linecap="round" stroke-linejoin="round"/>
<path d="M1320.55 55.0287L1343.97 60.7346" stroke="#D3D3D3" stroke-width="6.47881" stroke-linecap="round" stroke-linejoin="round"/>
<path d="M1358.43 67.2676L1379.19 80.0517" stroke="#D3D3D3" stroke-width="6.48104" stroke-linecap="round" stroke-linejoin="round"/>
<path d="M1391.21 90.5635L1408.28 108.39" stroke="#D3D3D3" stroke-width="6.48167" stroke-linecap="round" stroke-linejoin="round"/>
<path d="M1416.31 121.631L1428.69 143.311" stroke="#D3D3D3" stroke-width="6.4805" stroke-linecap="round" stroke-linejoin="round"/>
<path d="M1433.89 158.534L1440.1 182.932" stroke="#D3D3D3" stroke-width="6.47843" stroke-linecap="round" stroke-linejoin="round"/>
<path d="M1441.46 198.95L1442.72 224.149" stroke="#D3D3D3" stroke-width="6.47776" stroke-linecap="round" stroke-linejoin="round"/>
<path d="M1144.47 57.7129L1120.47 56.947" stroke="#D3D3D3" stroke-width="6.47776" stroke-linecap="round" stroke-linejoin="round"/>
<path d="M1105.85 56.6936L1081.85 55.9277" stroke="#D3D3D3" stroke-width="6.47776" stroke-linecap="round" stroke-linejoin="round"/>
<path d="M1066.84 55.4486L1042.84 54.6827" stroke="#D3D3D3" stroke-width="6.47776" stroke-linecap="round" stroke-linejoin="round"/>
<path d="M1026.21 54.1525L1002.21 53.3866" stroke="#D3D3D3" stroke-width="6.47776" stroke-linecap="round" stroke-linejoin="round"/>
<path d="M985.063 55.4076L961.723 61.4303" stroke="#D3D3D3" stroke-width="6.47881" stroke-linecap="round" stroke-linejoin="round"/>
<path d="M947.353 68.1586L926.767 81.2228" stroke="#D3D3D3" stroke-width="6.48104" stroke-linecap="round" stroke-linejoin="round"/>
<path d="M914.893 91.8965L898.065 109.952" stroke="#D3D3D3" stroke-width="6.48167" stroke-linecap="round" stroke-linejoin="round"/>
<path d="M890.211 123.302L878.131 145.147" stroke="#D3D3D3" stroke-width="6.4805" stroke-linecap="round" stroke-linejoin="round"/>
<path d="M873.136 160.439L867.256 184.919" stroke="#D3D3D3" stroke-width="6.47843" stroke-linecap="round" stroke-linejoin="round"/>
<path d="M866.11 200.954L865.199 226.168" stroke="#D3D3D3" stroke-width="6.47776" stroke-linecap="round" stroke-linejoin="round"/>
<path d="M530.512 287.129L510.672 273.597" stroke="#D3D3D3" stroke-width="6.47776" stroke-linecap="round" stroke-linejoin="round"/>
<path d="M498.481 265.539L478.641 252.006" stroke="#D3D3D3" stroke-width="6.47776" stroke-linecap="round" stroke-linejoin="round"/>
<path d="M466.236 243.545L446.396 230.012" stroke="#D3D3D3" stroke-width="6.47776" stroke-linecap="round" stroke-linejoin="round"/>
<path d="M432.654 220.639L412.814 207.107" stroke="#D3D3D3" stroke-width="6.47776" stroke-linecap="round" stroke-linejoin="round"/>
<path d="M397.263 199.607L374.338 192.157" stroke="#D3D3D3" stroke-width="6.47881" stroke-linecap="round" stroke-linejoin="round"/>
<path d="M358.601 190.119L334.221 190.09" stroke="#D3D3D3" stroke-width="6.48104" stroke-linecap="round" stroke-linejoin="round"/>
<path d="M318.472 192.72L294.582 198.919" stroke="#D3D3D3" stroke-width="6.48167" stroke-linecap="round" stroke-linejoin="round"/>
<path d="M280.789 205.965L258.869 217.91" stroke="#D3D3D3" stroke-width="6.4805" stroke-linecap="round" stroke-linejoin="round"/>
<path d="M246.446 228.131L228.343 245.628" stroke="#D3D3D3" stroke-width="6.47843" stroke-linecap="round" stroke-linejoin="round"/>
<path d="M218.767 258.54L204.463 279.324" stroke="#D3D3D3" stroke-width="6.47776" stroke-linecap="round" stroke-linejoin="round"/>
<g clip-path="url(#clip1_220_626)">
<path d="M622.2 1007.7L646.716 1048.07L598.202 1048.83L622.2 1007.7Z" fill="#FDA2A9"/>
<path d="M612.259 1024.66L646.716 1048.07L607.704 1032.89L604.583 1025.94L612.259 1024.66Z" fill="#DBD8DB"/>
<path d="M606.004 1047.99L606.228 1047.92L607.994 1047.85C608.409 1047.88 608.737 1048.18 608.767 1048.57C608.723 1048.98 608.413 1049.32 608.02 1049.36L606.253 1049.44C605.839 1049.4 605.51 1049.11 605.48 1048.72C605.449 1048.33 605.706 1048.09 606.004 1047.99Z" fill="black"/>
<path d="M647.385 1048.42C647.224 1048.71 647 1048.78 646.681 1048.8L611.689 1049.42C611.275 1049.39 610.946 1049.09 610.916 1048.7C610.96 1048.28 611.27 1047.95 611.664 1047.9L642.783 1047.38L608.072 1033.9L599.589 1048L602.823 1047.95C603.238 1047.98 603.566 1048.27 603.597 1048.66C603.552 1049.08 603.243 1049.42 602.849 1049.46L598.189 1049.64C597.944 1049.63 597.657 1049.48 597.52 1049.28C597.382 1049.09 597.373 1048.77 597.534 1048.48L606.82 1032.93L603.858 1026.25C603.795 1026.03 603.807 1025.78 603.914 1025.59C604.021 1025.4 604.224 1025.25 604.448 1025.18L611.729 1023.95L621.51 1007.28C621.617 1007.08 621.745 1006.96 621.969 1006.89L622.193 1006.82C622.437 1006.83 622.724 1006.98 622.862 1007.18L639.41 1034.42C639.589 1034.77 639.492 1035.28 639.14 1035.47C638.788 1035.66 638.278 1035.58 638.098 1035.23L622.226 1009.22L613.323 1024.41L617.047 1026.93C617.355 1027.15 617.501 1027.66 617.192 1028C616.956 1028.32 616.434 1028.48 616.106 1028.18L612.074 1025.44L605.708 1026.47L608.323 1032.22L640.506 1044.81L619.331 1030.38C619.023 1030.15 618.876 1029.64 619.186 1029.3C619.422 1028.99 619.944 1028.82 620.272 1029.12L644.174 1045.42L640 1038.48C639.82 1038.14 639.918 1037.63 640.27 1037.44L640.494 1037.37C640.792 1037.27 641.153 1037.4 641.386 1037.65L647.399 1047.61C647.557 1047.89 647.567 1048.2 647.385 1048.42Z" fill="black"/>
</g>
<g clip-path="url(#clip2_220_626)">
<path d="M602.877 287.623L612.7 333.818L566.653 318.528L602.877 287.623Z" fill="#FDA2A9"/>
<path d="M587.897 300.351L612.7 333.817L580.882 306.616L580.229 299.026L587.897 300.351Z" fill="#DBD8DB"/>
<path d="M574.294 320.311L574.528 320.318L576.219 320.833C576.601 320.999 576.813 321.388 576.712 321.767C576.534 322.143 576.13 322.359 575.744 322.27L574.053 321.755C573.672 321.59 573.46 321.2 573.56 320.821C573.66 320.443 573.982 320.3 574.294 320.311Z" fill="black"/>
<path d="M613.216 334.369C612.968 334.591 612.734 334.583 612.426 334.496L579.191 323.531C578.81 323.365 578.598 322.976 578.698 322.597C578.876 322.221 579.28 322.005 579.666 322.094L609.216 331.867L580.898 307.687L568.237 318.198L571.307 319.218C571.688 319.383 571.9 319.772 571.8 320.151C571.621 320.528 571.218 320.744 570.832 320.654L566.374 319.283C566.144 319.199 565.923 318.962 565.859 318.731C565.794 318.499 565.89 318.197 566.137 317.976L580.036 306.358L579.444 299.076C579.457 298.847 579.549 298.621 579.714 298.474C579.879 298.326 580.118 298.258 580.352 298.266L587.634 299.501L602.367 286.994C602.532 286.847 602.692 286.776 602.927 286.783L603.161 286.791C603.391 286.875 603.612 287.112 603.676 287.343L610.307 318.525C610.363 318.909 610.102 319.359 609.707 319.422C609.312 319.485 608.857 319.241 608.801 318.857L602.403 289.059L588.986 300.463L591.67 304.069C591.886 304.382 591.855 304.916 591.452 305.132C591.126 305.351 590.579 305.332 590.367 304.943L587.467 301.024L581.117 299.896L581.689 306.184L607.915 328.689L592.688 308.078C592.471 307.765 592.503 307.231 592.906 307.015C593.232 306.797 593.779 306.815 593.991 307.204L611.174 330.479L609.524 322.55C609.468 322.166 609.729 321.716 610.124 321.653L610.359 321.661C610.671 321.671 610.97 321.91 611.108 322.221L613.495 333.614C613.555 333.922 613.459 334.225 613.216 334.369Z" fill="black"/>
</g>
<defs>
<clipPath id="clip0_220_626">
<rect width="313.907" height="318.138" fill="white" transform="matrix(-0.971667 -0.236352 0.253216 -0.96741 1134.01 691.962)"/>
</clipPath>
<clipPath id="clip1_220_626">
<rect width="50.0004" height="50" fill="white" transform="matrix(0.954295 -0.298867 -0.2746 -0.961558 600.446 1063.29)"/>
</clipPath>
<clipPath id="clip2_220_626">
<rect width="50.0004" height="50" fill="white" transform="matrix(0.999463 0.0327788 0.0580825 -0.998312 564 332.916)"/>
</clipPath>
</defs>
</svg>
