<svg width="36" height="58" viewBox="0 0 36 58" fill="none" xmlns="http://www.w3.org/2000/svg">
<g clip-path="url(#clip0_374_735)">
<path d="M22.7062 33.0987H12.6143L11.6577 23.0067H23.6627L22.7062 33.0987Z" fill="#FFE49C"/>
<path d="M23.4327 8.64881C24.6463 7.52353 25.0903 5.93632 24.4074 4.75358C23.7244 3.57083 22.128 3.16164 20.5467 3.65006C20.179 2.03648 19.0264 0.858337 17.6606 0.858337C16.2949 0.858337 15.1423 2.03636 14.7746 3.65006C13.1933 3.16176 11.5968 3.57083 10.9139 4.75358C10.231 5.93632 10.6749 7.52353 11.8886 8.64881C10.6749 9.77409 10.231 11.3613 10.9139 12.5441C11.5968 13.7268 13.1933 14.136 14.7746 13.6476C15.1423 15.2611 16.2949 16.4393 17.6606 16.4393C19.0264 16.4393 20.179 15.2611 20.5467 13.6476C22.128 14.136 23.7244 13.7268 24.4074 12.5441C25.0903 11.3613 24.6463 9.77409 23.4327 8.64881Z" fill="#C98572"/>
<path d="M17.6606 11.6581C19.3226 11.6581 20.6699 10.3108 20.6699 8.6488C20.6699 6.98682 19.3226 5.63953 17.6606 5.63953C15.9987 5.63953 14.6514 6.98682 14.6514 8.6488C14.6514 10.3108 15.9987 11.6581 17.6606 11.6581Z" fill="#FFE49C"/>
<path d="M24.603 8.64882C26.936 5.66143 24.8876 2.10939 21.1318 2.6365C19.711 -0.878003 15.6109 -0.8795 14.1895 2.6365C10.4356 2.10927 8.38401 5.65982 10.7183 8.64882C8.38528 11.6359 10.4326 15.1875 14.1895 14.661C14.7046 15.9354 15.6689 16.8624 16.797 17.181V22.1429H11.6583C11.1492 22.1429 10.7503 22.5815 10.7985 23.0881L11.1199 26.4796C11.12 26.481 11.1201 26.4824 11.1202 26.4839L11.7549 33.1801C11.7969 33.6236 12.1693 33.9623 12.6147 33.9623H22.7067C23.1521 33.9623 23.5246 33.6236 23.5665 33.1801L24.2012 26.4839C24.2013 26.4825 24.2014 26.4811 24.2015 26.4796L24.5229 23.0881C24.5711 22.5814 24.1719 22.1429 23.6631 22.1429H18.5244V20.3456L22.2883 18.5823C22.7203 18.3799 22.9064 17.8657 22.704 17.4338C22.5017 17.0018 21.9873 16.8158 21.5555 17.018L18.5244 18.4381V17.1811C19.6524 16.8625 20.6166 15.9356 21.1319 14.6611C24.8853 15.188 26.9376 11.6379 24.603 8.64882ZM13.4004 32.2349L12.9287 27.2576H22.3925L21.9208 32.2349H13.4004ZM22.5563 25.53H12.7649L12.6076 23.8703H22.7135L22.5563 25.53ZM23.6593 12.1122C23.1998 12.9081 22.0245 13.2 20.8016 12.8223C20.321 12.6739 19.8161 12.9663 19.7045 13.4557C19.4201 14.7039 18.5796 15.5756 17.6606 15.5756C16.7416 15.5756 15.9012 14.7039 15.6166 13.4557C15.505 12.9661 15 12.674 14.5196 12.8223C13.2966 13.2002 12.1214 12.9081 11.6618 12.1122C11.2023 11.3163 11.537 10.1525 12.4757 9.28223C12.8439 8.94077 12.8445 8.35722 12.4757 8.01553C11.537 7.14511 11.2023 5.98136 11.6618 5.18557C12.1214 4.38966 13.2965 4.09772 14.5197 4.47534C15 4.62379 15.505 4.3315 15.6166 3.84193C15.9011 2.59377 16.7416 1.72209 17.6606 1.72209C18.5795 1.72209 19.42 2.59377 19.7045 3.84193C19.8164 4.33231 20.3221 4.62345 20.8015 4.47534C22.0251 4.09783 23.1999 4.38966 23.6593 5.18557C24.1188 5.98148 23.784 7.14511 22.8454 8.01553C22.4773 8.35688 22.4767 8.94042 22.8454 9.28223C23.7842 10.1525 24.1189 11.3163 23.6593 12.1122Z" fill="#414042"/>
<path d="M17.6606 4.77576C15.525 4.77576 13.7876 6.51314 13.7876 8.64877C13.7876 10.7844 15.525 12.5218 17.6606 12.5218C19.7962 12.5218 21.5336 10.7844 21.5336 8.64877C21.5336 6.51314 19.7961 4.77576 17.6606 4.77576ZM17.6606 10.7944C16.4775 10.7944 15.5151 9.83198 15.5151 8.64888C15.5151 7.46579 16.4776 6.50335 17.6606 6.50335C18.8437 6.50335 19.8061 7.46579 19.8061 8.64888C19.8061 9.83186 18.8436 10.7944 17.6606 10.7944Z" fill="#414042"/>
</g>
<path d="M7.00206 49.9623H6.8694C5.84346 49.9623 5.10938 49.383 4.66716 48.2244L4.62736 48.1249L3.5395 49.1398C3.03538 49.1309 2.46271 49.0646 1.82149 48.9408C1.1449 48.8125 0.784493 48.5781 0.740271 48.2376C0.607606 47.1852 0.616451 46.4201 0.766804 45.9425C0.974646 45.3146 1.95416 44.5982 3.70534 43.7934L3.7584 43.7735L3.63237 43.203L4.38856 42.3606C4.63178 42.0864 4.79319 42.1395 4.87279 42.5198L5.68205 46.5395C5.85451 47.3886 6.25029 47.8131 6.8694 47.8131H7.00206C7.33373 47.8131 7.49956 48.0939 7.49956 48.6555V49.1398C7.49956 49.6881 7.33373 49.9623 7.00206 49.9623ZM1.76843 46.5727C1.99396 46.7982 2.64844 46.922 3.73187 46.9441C3.78051 46.9441 3.97288 46.9397 4.30896 46.9309H4.39519L4.0171 45.2593L3.94413 45.2792C2.7015 45.6684 1.97406 46.0155 1.76179 46.3206C1.69546 46.4179 1.69767 46.5019 1.76843 46.5727ZM8.76651 40.7354L9.94723 41.9161L8.76651 43.0969L7.58579 41.9161L8.76651 40.7354ZM6.94236 49.9623C6.6107 49.9623 6.44487 49.6439 6.44487 49.0071V48.7882C6.44487 48.1381 6.6107 47.8131 6.94236 47.8131H7.62559C8.40831 47.8131 8.91465 47.6473 9.1446 47.3156C9.20209 47.2272 9.20652 47.0591 9.15787 46.8115C9.10481 46.5285 8.91686 46.0089 8.59404 45.2527L9.5625 44.0189C9.69959 43.8464 9.8212 43.8464 9.92733 44.0189C10.4138 44.837 10.657 45.6286 10.657 46.3936C10.657 47.4859 10.416 48.3438 9.93396 48.9673C9.42541 49.6306 8.62721 49.9623 7.53936 49.9623H6.94236ZM14.9951 49.9689C14.9951 49.9689 14.8072 49.9733 14.4313 49.9822C13.4319 49.991 12.7465 49.7743 12.375 49.3321C11.9151 48.7926 11.8665 47.8927 12.2291 46.6324C12.4325 45.9337 12.7067 45.4229 13.0516 45.1001C13.3302 44.8436 13.6729 44.711 14.0797 44.7021C14.8713 44.68 15.4683 45.1134 15.8707 46.0022C16.2068 46.7407 16.3793 47.5389 16.3881 48.3968C16.3925 48.7285 16.366 49.1 16.3085 49.5112C16.1184 50.913 15.5545 52.0717 14.617 52.987C14.4004 53.1993 14.208 53.3231 14.0399 53.3585C13.925 53.385 13.7348 53.3961 13.4695 53.3917C12.7221 53.3784 12.0721 53.3077 11.5193 53.1794C11.3866 53.1485 11.3159 53.0799 11.307 52.9738C11.307 52.9119 11.4353 52.7969 11.6918 52.6288C13.5933 51.3995 14.6944 50.5128 14.9951 49.9689ZM15.1543 47.8396C14.9023 46.8225 14.4313 46.3671 13.7415 46.4732C13.4673 46.5174 13.2749 46.7009 13.1644 47.0237C13.0096 47.4969 13.2174 47.7645 13.7879 47.8264C14.093 47.8617 14.3694 47.8728 14.617 47.8595L15.1543 47.8396ZM24.5935 49.9623H24.3878C23.3353 49.9623 22.6499 49.467 22.3315 48.4764C21.6549 49.467 20.7904 49.9623 19.7379 49.9623C18.2963 49.9623 17.571 49.2592 17.5622 47.8529C17.5622 47.6495 17.6131 47.3355 17.7148 46.911L18.471 46.9972L18.4776 47.1829C18.4953 47.5898 18.9441 47.7932 19.8241 47.7932C20.4034 47.7976 20.8545 47.7136 21.1773 47.5411C21.5223 47.3598 21.6792 47.2139 21.6483 47.1033C21.635 47.0635 21.6284 47.0414 21.6284 47.037L20.5604 43.5214L21.4957 42.6325C21.7301 42.4114 21.8937 42.4667 21.9866 42.7984L23.0479 46.5462C23.2867 47.3908 23.7555 47.8131 24.4542 47.8131H24.5935C24.9251 47.8131 25.0909 48.0939 25.0909 48.6555V49.1398C25.0909 49.6881 24.9251 49.9623 24.5935 49.9623ZM29.1638 49.9623H28.8918C27.9543 49.9623 27.2954 49.5908 26.9151 48.8479C26.4198 49.5908 25.7609 49.9623 24.9384 49.9623H24.5271C24.1955 49.9623 24.0296 49.6439 24.0296 49.0071V48.7882C24.0296 48.1381 24.1955 47.8131 24.5271 47.8131H24.6134C25.228 47.8131 25.657 47.7092 25.9002 47.5013C26.1744 47.2758 26.2938 46.7275 26.2584 45.8563C26.1611 43.3268 26.0616 41.538 25.9599 40.49L27.459 39.6343C27.6934 39.5016 27.8106 39.5857 27.8106 39.8864V45.7037C27.8106 46.5041 27.8681 47.0591 27.983 47.3687C28.098 47.665 28.4253 47.8131 28.9648 47.8131H29.1638C29.4954 47.8131 29.6613 48.0939 29.6613 48.6555V49.1398C29.6613 49.6881 29.4954 49.9623 29.1638 49.9623ZM29.1041 49.9623C28.7724 49.9623 28.6066 49.6439 28.6066 49.0071V48.7882C28.6066 48.1381 28.7724 47.8131 29.1041 47.8131H29.7608C30.8796 47.8131 31.6335 47.6694 32.0227 47.3819C32.2969 47.1785 32.3853 46.9884 32.288 46.8115C31.9343 46.1658 30.9437 45.2328 29.3163 44.0123L29.7409 42.1085L35.2995 40.0787C35.5162 39.9991 35.6069 40.0854 35.5715 40.3374L35.346 41.8034L31.1736 43.2693C32.8541 44.4898 33.6633 45.7568 33.6014 47.0702C33.5705 47.7291 33.3206 48.2995 32.8519 48.7816C32.0868 49.5687 31.0675 49.9623 29.7939 49.9623H29.1041ZM35.6975 38.5464L35.5582 39.2297L30.046 41.2197L30.2185 40.3242L35.5184 38.374C35.6732 38.3209 35.7329 38.3784 35.6975 38.5464Z" fill="#C98572"/>
<defs>
<clipPath id="clip0_374_735">
<rect width="33.9623" height="33.9623" fill="white" transform="translate(0.679199)"/>
</clipPath>
</defs>
</svg>
